<svg fill="#000000" xmlns="http://www.w3.org/2000/svg"  viewBox="0 0 26 26" width="104px" height="104px"><path d="M18,16v7c0,0.551-0.448,1-1,1H5c-0.552,0-1-0.449-1-1v-7H2v7c0,1.656,1.344,3,3,3h12c1.656,0,3-1.344,3-3v-7 H18z"/><path d="M6 21c0-.551.449-1 1-1h8c.551 0 1 .449 1 1l0 0c0 .551-.449 1-1 1H7C6.449 22 6 21.551 6 21L6 21zM6.045 17.035c.053-.547.543-.951 1.092-.898l7.963.771c.548.054.951.544.898 1.092l0 0c-.054.549-.543.953-1.092.899l-7.963-.772C6.396 18.074 5.992 17.584 6.045 17.035L6.045 17.035zM6.876 12.198c.155-.529.714-.833 1.241-.676l7.675 2.259c.528.156.833.714.677 1.242l0 0c-.156.528-.714.832-1.242.677l-7.674-2.26C7.024 13.284 6.721 12.726 6.876 12.198L6.876 12.198zM9.48 7.178c.314-.453.939-.566 1.392-.254l6.577 4.556c.453.313.568.938.252 1.393l0 0c-.312.45-.938.563-1.389.25L9.733 8.571C9.281 8.255 9.168 7.63 9.48 7.178L9.48 7.178zM14.125 2.722c.464-.302 1.085-.17 1.386.289l4.369 6.703c.302.463.171 1.083-.292 1.385l0 0c-.459.3-1.082.169-1.383-.291l-4.37-6.7C13.534 3.644 13.666 3.021 14.125 2.722L14.125 2.722zM20.542.469c.548-.08 1.054.302 1.134.844l1.141 7.921c.079.546-.301 1.054-.848 1.133l0 0c-.544.077-1.054-.304-1.132-.847l-1.144-7.919C19.617 1.055 19.998.545 20.542.469L20.542.469z"/></svg>